<svg width="38" height="38" viewBox="0 0 38 38" fill="none" xmlns="http://www.w3.org/2000/svg">
<path fill-rule="evenodd" clip-rule="evenodd" d="M19 38C29.4934 38 38 29.4934 38 19C38 8.50659 29.4934 0 19 0C8.50659 0 0 8.50659 0 19C0 29.4934 8.50659 38 19 38ZM26.4 19C26.4 23.0869 23.0869 26.4 19 26.4C14.9131 26.4 11.6 23.0869 11.6 19C11.6 14.9131 14.9131 11.6 19 11.6C23.0869 11.6 26.4 14.9131 26.4 19ZM30.4 19C30.4 25.296 25.296 30.4 19 30.4C12.704 30.4 7.6 25.296 7.6 19C7.6 12.7039 12.704 7.59999 19 7.59999C25.296 7.59999 30.4 12.7039 30.4 19Z" fill="black"/>
</svg>
